<?xml version="1.0" encoding="UTF-8" standalone="no"?>
<!-- Created with Inkscape (http://www.inkscape.org/) -->

<svg
   version="1.1"
   id="svg1"
   width="615"
   height="360"
   viewBox="0 0 615 360"
   sodipodi:docname="logo_simple.svg"
   inkscape:version="1.3.1 (91b66b0783, 2023-11-16)"
   xmlns:inkscape="http://www.inkscape.org/namespaces/inkscape"
   xmlns:sodipodi="http://sodipodi.sourceforge.net/DTD/sodipodi-0.dtd"
   xmlns="http://www.w3.org/2000/svg"
   xmlns:svg="http://www.w3.org/2000/svg">
  <defs
     id="defs1" />
  <sodipodi:namedview
     id="namedview1"
     pagecolor="#ffffff"
     bordercolor="#000000"
     borderopacity="0.25"
     inkscape:showpageshadow="2"
     inkscape:pageopacity="0.0"
     inkscape:pagecheckerboard="0"
     inkscape:deskcolor="#d1d1d1"
     inkscape:zoom="2"
     inkscape:cx="287.25"
     inkscape:cy="295.75"
     inkscape:window-width="1920"
     inkscape:window-height="1009"
     inkscape:window-x="-8"
     inkscape:window-y="-8"
     inkscape:window-maximized="1"
     inkscape:current-layer="layer17" />
  <g
     inkscape:groupmode="layer"
     id="layer17"
     inkscape:label="Colors"
     inkscape:highlight-color="#21f3c0"
     transform="matrix(1.003679,0,0,1,-0.1285548,0)">
    <g
       id="g1"
       transform="translate(2.4825989,-1.7333307)">
      <rect
         style="display:inline;opacity:1;fill:#ff636c;fill-opacity:1;stroke-width:0.989804"
         id="rect19"
         width="136.05492"
         height="28.347954"
         x="171"
         y="299.39081" />
      <rect
         style="display:inline;fill:#ffffff;fill-opacity:1;stroke-width:0.989906"
         id="rect19-7"
         width="136.05492"
         height="28.353813"
         x="34.943138"
         y="299.38788" />
      <rect
         style="display:inline;fill:#65e7ff;fill-opacity:1;stroke-width:0.988826"
         id="rect19-5"
         width="135.76976"
         height="28.351372"
         x="307.05493"
         y="299.39081" />
      <rect
         style="display:inline;fill:#424242;fill-opacity:1;stroke-width:0.989105"
         id="rect19-5-0"
         width="135.76976"
         height="28.367363"
         x="442.80362"
         y="299.38281" />
    </g>
  </g>
  <g
     inkscape:groupmode="layer"
     id="layer9"
     inkscape:label="Outlines"
     style="fill:#000000">
    <g
       inkscape:groupmode="layer"
       id="layer10"
       inkscape:label="S">
      <path
         id="path11"
         style="fill:#000000;opacity:1;stroke-width:1.01439"
         d="M 82.378906 31.716797 A 49.851028 44.650742 0 0 0 32.527344 76.367188 A 49.851028 44.650742 0 0 0 40.060547 99.882812 C 39.862435 99.88109 35.987161 99.890245 33.853516 103.61328 C 30.98925 108.61119 31.466797 113.66797 31.466797 113.66797 C 31.466797 113.66797 34.168109 158.56836 80.609375 158.56836 C 135.07731 158.56836 132.22852 112.42969 132.22852 112.42969 L 128.86719 92.171875 A 49.851028 44.650742 0 0 0 132.22852 76.367188 A 49.851028 44.650742 0 0 0 82.378906 31.716797 z " />
    </g>
    <g
       inkscape:groupmode="layer"
       id="layer11"
       inkscape:label="Q"
       style="fill:#000000">
      <path
         id="path13"
         style="opacity:1;fill:#000000;stroke-width:1.10055"
         d="m 169.54182,31.716797 c -30.09951,0 -53.79182,26.06928 -53.79182,57.457869 0.025,31.077674 24.10465,55.045704 53.90344,55.455544 0.002,0.0488 0.0127,4.44872 4.20594,8.63891 3.91977,3.91696 7.86718,4.85784 7.86718,4.85784 h 28.10742 c 0,0 5.32876,0.50169 9.36914,-6.49142 3.24244,-5.61203 0.88477,-13.02773 0.88477,-13.02773 l 1.49609,-30.73958 c 2.05282,-6.00203 3.12309,-12.321347 3.16602,-18.693564 0,-31.388589 -25.10866,-57.457869 -55.20818,-57.457869 z"
         sodipodi:nodetypes="sccsccscccs" />
    </g>
    <g
       inkscape:groupmode="layer"
       id="layer12"
       inkscape:label="U"
       style="fill:#000000">
      <path
         style="opacity:1;fill:#000000"
         d="m 220.42567,31.748078 c 0,0 -3.19892,-0.699325 -6.49738,2.599139 -3.44606,3.446063 -3.21047,7.54886 -3.21047,7.54886 v 78.842403 c 0,0 7.38231,37.47667 51.26524,37.47667 47.68682,0 51.26524,-42.07286 51.26524,-42.07286 V 40.481863 c 0,0 -0.13067,-4.105537 -2.24762,-6.222495 -2.96353,-2.963529 -6.28417,-2.497649 -6.28417,-2.497649 L 272.9,31.716797 c 0,0 -3.05388,-0.408535 -6.1496,2.687179 -2.80631,2.806307 -2.49111,6.983652 -2.33665,6.82919 l -0.26517,60.943764 -1.63519,3.71231 -1.94454,-3.71231 V 41.18897 c 0,0 -0.39856,-4.326272 -2.55568,-6.576048 -2.73091,-2.848205 -4.60653,-2.896125 -4.60653,-2.896125 z"
         id="path15"
         sodipodi:nodetypes="csccsccsccscccccscc" />
    </g>
    <g
       inkscape:groupmode="layer"
       id="layer13"
       inkscape:label="A">
      <path
         id="path16"
         style="opacity:1;fill:#000000"
         d="m 357.42383,31.802735 v 0.0039 c -0.0221,-0.01538 -5.42612,0.0708 -8.11523,1.060547 -4.60954,1.696576 -5.37696,3.818359 -5.37696,3.818359 L 311,123.75 l -5,12.89844 v 12.375 c 0,0 -0.0166,2.98728 3.00586,6.00976 3.40681,3.40681 5.65625,3.35938 5.65625,3.35938 h 30.58203 c 0,0 1.38511,-0.12388 4.25391,-2.47461 2.57914,-2.11338 2.81836,-3.1836 2.81836,-3.18359 l 5.12109,-10.59571 5.12109,10.5918 c 0,0 0.23922,1.07021 2.81836,3.18359 2.8688,2.35073 4.25391,2.47266 4.25391,2.47266 h 30.58203 c 0,0 2.24944,0.0494 5.65625,-3.35742 3.0225,-3.02249 3.00586,-6.01172 3.00586,-6.01172 v -12.37305 l -5,-12.89844 -32.93164,-87.064449 c 0,0 -0.78304,-2.121783 -5.39258,-3.818359 -2.69804,-0.993038 -8.14075,-1.076647 -8.12695,-1.060547 z"
         sodipodi:nodetypes="ccsccccsccscccsccsccccsc" />
    </g>
    <g
       inkscape:groupmode="layer"
       id="layer14"
       inkscape:label="R">
      <path
         style="opacity:1;fill:#000000"
         d="M 402.52053,41.365747 V 146.90143 c 0,0 -0.5876,4.36215 3.35876,8.30851 3.27708,3.27708 6.54074,3.18198 6.54074,3.18198 h 30.58237 c 0,0 8.13852,-3.71231 5.83363,-3.71231 -2.39354,0 6.89429,3.71231 6.89429,3.71231 h 28.99138 c 0,0 3.44373,0.0918 6.18718,-2.65165 2.70356,-2.70356 2.47488,-6.36396 2.47488,-6.36396 v -12.19759 l -14.84925,-29.34494 c 0,0 16.96035,-10.9503 16.88218,-36.239219 -0.10068,-32.571178 -28.49008,-39.78792 -28.49008,-39.78792 h -55.64046 c 0,0 -2.81896,-0.502735 -6.18719,2.828427 -2.97534,2.942593 -2.57843,6.730679 -2.57843,6.730679 z"
         id="path17"
         sodipodi:nodetypes="ccsccsccscccsccsc" />
    </g>
    <g
       inkscape:groupmode="layer"
       id="layer15"
       inkscape:label="E"
       style="fill:#000000">
      <path
         id="path18"
         style="fill:#000000;opacity:1"
         d="M 499.74609 31.806641 C 499.74609 31.806641 496.64086 32.537783 494.1582 35.21875 C 490.71609 38.935816 490.24609 42.806641 490.24609 42.806641 L 490.24609 108.80664 L 490.25 108.80664 L 490.25 148 C 490.25 148 490.71999 151.87082 494.16211 155.58789 C 496.64477 158.26886 499.75 159 499.75 159 L 574.25 159 C 574.25 159 577.02532 158.8935 580.25 155.125 C 583.03009 151.87607 582.75 149.5 582.75 149.5 L 582.75 118.75 C 582.75 118.75 582.43601 114.37351 579.875 111.8125 C 576.9757 108.9132 573.75 108.75 573.75 108.75 L 561.75 108.75 L 561.75 82.056641 L 573.74609 82.056641 C 573.74609 82.056641 576.9718 81.893438 579.87109 78.994141 C 582.4321 76.433133 582.74609 72.056641 582.74609 72.056641 L 582.74609 41.306641 C 582.74609 41.306641 583.02618 38.930567 580.24609 35.681641 C 577.02142 31.913144 574.24609 31.806641 574.24609 31.806641 L 499.74609 31.806641 z " />
    </g>
    <g
       inkscape:groupmode="layer"
       id="layer14-3"
       inkscape:label="R"
       style="fill:#000000"
       transform="translate(-366.91273,126.7954)">
      <path
         style="opacity:1;fill:#000000"
         d="M 402.52053,41.365747 V 146.90143 c 0,0 -0.5876,4.36215 3.35876,8.30851 3.27708,3.27708 6.54074,3.18198 6.54074,3.18198 h 30.58237 c 0,0 8.13852,-3.71231 5.83363,-3.71231 -2.39354,0 6.89429,3.71231 6.89429,3.71231 h 28.99138 c 0,0 3.44373,0.0918 6.18718,-2.65165 2.70356,-2.70356 2.47488,-6.36396 2.47488,-6.36396 v -12.19759 l -14.84925,-29.34494 c 0,0 16.96035,-10.9503 16.88218,-36.239219 -0.11575,-37.446518 -28.0633,-39.951532 -28.0633,-39.951532 h -55.64046 c 0,0 -2.81896,-0.502735 -6.18719,2.828427 -2.97534,2.942593 -3.00521,6.894291 -3.00521,6.894291 z"
         id="path17-6"
         sodipodi:nodetypes="ccsccsccscccsccsc" />
    </g>
    <g
       inkscape:groupmode="layer"
       id="layer12-6"
       inkscape:label="U"
       style="fill:#000000"
       transform="translate(-94.96742,126.72753)">
      <path
         style="opacity:1;fill:#000000"
         d="m 220.26376,31.487818 c 0,0 -2.91201,-0.249605 -6.21047,3.048859 -3.44606,3.446063 -3.33547,7.3594 -3.33547,7.3594 v 78.842403 c 0,0 7.38231,37.47667 51.26524,37.47667 47.68682,0 51.26524,-42.07286 51.26524,-42.07286 V 40.481863 c 0,0 -0.75567,-3.916077 -2.87262,-6.033035 -2.96353,-2.963529 -5.52427,-3.049398 -5.52427,-3.049398 h -15.60055 -15.60054 c 0,0 -3.6792,0.09829 -6.77492,3.194004 -2.80631,2.806307 -2.88128,7.147745 -2.72682,6.993283 v 60.590213 l -1.63519,3.71231 -1.94454,-3.71231 V 41.18897 c 0,0 -0.27356,-4.136812 -2.43068,-6.386588 -2.73091,-2.848205 -6.23138,-2.96101 -6.23138,-2.96101 l -15.82152,-0.176777 z"
         id="path15-7"
         sodipodi:nodetypes="csccsccscccscccccsccc" />
    </g>
    <g
       inkscape:groupmode="layer"
       id="layer16"
       inkscape:label="N"
       style="fill:#000000">
      <path
         style="opacity:1;fill:#000000"
         d="M 209,275 V 170 c 0,0 1.13911,-4.61954 3.40625,-7.84375 2.77123,-3.9411 6.09375,-3.95898 6.09375,-3.95898 l 33.90901,-0.0624 c 0,0 4.78826,-0.34588 7.45971,2.91875 2.02425,2.47371 2.63128,6.32139 2.63128,6.32139 0,0 -0.4372,-3.22183 3.14017,-6.28033 3.27819,-2.80273 5.48483,-2.80273 5.48483,-2.80273 h 32.125 c 0,0 3.25606,0.56386 5.16606,2.41387 1.66239,1.61018 1.83394,5.04419 1.83394,5.04419 V 277.5 c 0,0 -0.34312,3.25501 -2.79354,5.46404 C 305.33699,284.87471 302.375,285 302.375,285 h -31.25 c 0,0 -2.88353,-0.38353 -6.5,-4 C 260.99786,277.37286 259,269 259,269 l -0.5,6 c 0,0 -0.1995,4.35479 -2.35983,6.51517 C 252.43347,285.22186 249.625,285 249.625,285 h -31.5 c 0,0 -3.00181,-0.0447 -6.35355,-3.39645 C 208.80044,278.63254 209,275 209,275 Z"
         id="path19"
         sodipodi:nodetypes="ccsccscsccsccsccsccsccsc" />
    </g>
    <g
       inkscape:groupmode="layer"
       id="layer16-8"
       inkscape:label="N"
       style="fill:#000000"
       transform="translate(1.7e-4,15.2199)">
      <path
         style="opacity:1;fill:#000000"
         d="m 304.45942,259.8125 v -105 c 0,0 1.37832,-4.46396 3.40625,-7.84375 2.38416,-3.9735 7.59705,-3.8966 7.59705,-3.8966 l 29.78125,0.10053 c 0,0 5.49094,-0.17743 8.87706,3.18271 1.90098,1.8864 3.83839,5.83211 3.83839,5.83211 0,0 -0.0918,-2.09625 2.875,-5.75 3.10142,-3.81951 7.2533,-3.27068 7.2533,-3.27068 h 32.125 c 0,0 1.75276,0.50148 3.66276,2.35149 1.66239,1.61018 1.83394,5.04419 1.83394,5.04419 v 111.75 c 0,0 -0.19607,3.20577 -2.64649,5.4148 -2.11947,1.91067 -5.08146,2.03596 -5.08146,2.03596 h -31.25 c 0,0 -2.88353,-0.38353 -6.5,-4 -3.62714,-3.62714 -5.77205,-11.95076 -5.77205,-11.95076 l -0.5,6 c 0,0 -0.0525,4.30555 -2.21278,6.46593 -3.7067,3.70669 -6.51517,3.48483 -6.51517,3.48483 h -31.5 c 0,0 -3.00181,-0.0447 -6.35355,-3.39645 -2.97101,-2.97101 -2.9185,-6.55431 -2.9185,-6.55431 z"
         id="path19-4"
         sodipodi:nodetypes="ccsccscsccsccsccsccsccsc" />
    </g>
    <g
       inkscape:groupmode="layer"
       id="layer15-0"
       inkscape:label="E"
       style="fill:#000000"
       transform="translate(-90.206099,126.03071)">
      <path
         id="path18-2"
         style="opacity:1;fill:#000000"
         d="M 499.74711 31.807181 C 499.74711 31.807181 496.63993 32.53637 494.15727 35.217337 C 490.71515 38.934403 490.24711 42.807181 490.24711 42.807181 L 490.24711 108.80718 L 490.24907 108.80718 L 490.24907 148.00054 C 490.24907 148.00054 490.71906 151.87136 494.16118 155.58843 C 496.64383 158.2694 499.74907 159.00054 499.74907 159.00054 L 574.24907 159.00054 C 574.24907 159.00054 577.02439 158.89404 580.24907 155.12554 C 583.02915 151.87661 582.74907 149.50054 582.74907 149.50054 L 582.74907 118.75054 C 582.74907 118.75054 582.43508 114.37405 579.87407 111.81304 C 576.97477 108.91374 573.74907 108.75054 573.74907 108.75054 L 561.74907 108.75054 L 561.74907 82.057181 L 573.74711 82.057181 C 573.74711 82.057181 576.97282 81.893978 579.87211 78.994681 C 582.43312 76.433673 582.74711 72.057181 582.74711 72.057181 L 582.74711 41.307181 C 582.74711 41.307181 583.0272 38.931107 580.24711 35.682181 C 577.02244 31.913684 574.24711 31.807181 574.24711 31.807181 L 499.74711 31.807181 z " />
    </g>
    <g
       inkscape:groupmode="layer"
       id="layer14-3-1"
       inkscape:label="R"
       style="fill:#000000"
       transform="translate(88.072909,126.50011)">
      <path
         style="opacity:1;fill:#000000"
         d="M 400.94341,41.326914 V 146.8626 c 0,0 -0.5876,4.36215 3.35876,8.30851 3.27708,3.27708 6.54074,3.18198 6.54074,3.18198 h 30.58237 c 0,0 8.13852,-3.71231 5.83363,-3.71231 -2.39354,0 6.89429,3.71231 6.89429,3.71231 h 28.99138 c 0,0 3.44373,0.0918 6.18718,-2.65165 2.70356,-2.70356 2.47488,-6.36396 2.47488,-6.36396 v -12.19759 l -14.84925,-29.34494 c 0,0 16.96035,-10.950303 16.88218,-36.239222 C 493.73889,38.98455 465.59949,32.488079 465.59949,32.488079 h -55.64046 c 0,0 -2.81896,-0.502735 -6.18719,2.828427 -2.97534,2.942593 -2.82843,6.010408 -2.82843,6.010408 z"
         id="path17-6-1"
         sodipodi:nodetypes="ccsccsccscccsccsc" />
    </g>
  </g>
  <g
     inkscape:groupmode="layer"
     id="layer8"
     inkscape:label="Letters"
     inkscape:highlight-color="#2194f3">
    <g
       inkscape:groupmode="layer"
       id="layer1"
       inkscape:label="S">
      <path
         style="opacity:1;fill:#ffffff"
         d="m 69.918133,110.7726 -25.130555,-0.0661 c 0,0 -1.040653,8.1728 4.051168,17.03303 5.09182,8.86023 16.316113,18.4079 32.737897,18.37772 19.098827,-0.0351 30.006947,-9.58277 34.866227,-18.54251 4.85928,-8.95974 3.66972,-17.33156 3.66972,-17.33156 0,0 -0.17272,-3.17905 -2.05402,-7.12158 -1.85825,-3.894212 -3.88403,-4.836487 -3.88403,-4.836487 L 72.075749,77.645239 c 0,0 1.494187,-6.547214 10.772468,-6.609404 10.636529,-0.07129 12.604172,8.999533 12.604172,8.999533 l 24.824021,0.09741 c 0,0 0.0632,-12.67312 -6.01069,-20.443417 C 109.13335,53.123596 98.343977,44.736168 82.887112,44.88353 69.038783,45.015556 60.397884,49.561244 53.150983,57.206763 c -7.2469,7.645519 -8.431257,18.308965 -8.431257,18.308965 0,0 -0.23241,5.835744 1.677935,10.665619 1.459515,3.690055 4.402503,6.333558 4.38298,6.206659 L 93.04324,113.5193 c 0,0 -0.949522,6.71322 -10.647554,6.71615 -11.066994,0.003 -12.477553,-9.46285 -12.477553,-9.46285 z"
         id="path1"
         sodipodi:nodetypes="ccssscsccsccssscsccsc" />
    </g>
    <g
       inkscape:groupmode="layer"
       id="layer6"
       inkscape:label="Q">
      <ellipse
         style="display:inline;opacity:1;fill:#ffffff;stroke-width:0.998126"
         id="path3"
         cx="169.54182"
         cy="88.620407"
         rx="38.495003"
         ry="43.573067" />
      <path
         id="path4"
         style="display:inline;opacity:1;fill:#ffffff"
         d="M 170.08594 44.675781 C 169.60425 44.688776 169.34375 44.710938 169.34375 44.710938 C 169.34375 44.710937 152.45584 43.755004 140.96484 56.410156 C 128.47585 70.16442 131.23633 88.726562 131.23633 88.726562 C 131.23633 88.726562 128.73946 101.20186 136.91211 115.25 C 147.86724 134.08099 170.03906 131.92969 170.03906 131.92969 C 170.03906 131.92969 173.42132 132.22598 178.05273 131.48242 L 185.45508 145.78711 L 208.3457 145.80859 L 196.59375 121.83203 C 196.62197 121.7998 196.65157 121.77071 196.67969 121.73828 C 208.40132 108.21992 208.2591 100.80032 208.37891 88.957031 C 208.49094 77.882987 209.20362 68.524711 198.5332 56.873047 C 187.62776 44.964745 173.45776 44.584819 170.08594 44.675781 z " />
    </g>
    <g
       inkscape:groupmode="layer"
       id="layer2"
       inkscape:label="U">
      <path
         id="path6"
         style="opacity:1;fill:#ffffff;stroke-width:1.00687"
         d="M 276.91797 44.904297 L 276.91797 106.9668 L 276.83594 106.96484 C 276.83594 106.96484 276.95326 112.55522 271.89648 116.24609 C 267.61492 119.37111 263.6758 119.90666 262.30664 120 C 262.04886 120.00282 257.84028 119.99142 252.75781 116.24609 C 247.86944 112.6438 247.9969 107.38302 248.00586 107.13086 L 248.00586 45.046875 L 223.92578 45.046875 L 224.0918 113.51953 L 224.12305 113.51172 C 224.16824 114.90583 224.93801 129.47912 237.89062 138.00781 C 251.96528 147.27532 262.35547 146.11914 262.35547 146.11914 L 262.35547 146.09766 C 264.97273 146.18785 274.77405 145.91888 286.9043 138.00781 C 300.32323 129.25629 300.79942 114.07464 300.81445 113.37305 L 300.83203 113.37695 L 300.99805 44.904297 L 276.91797 44.904297 z " />
    </g>
    <g
       inkscape:groupmode="layer"
       id="layer3"
       inkscape:label="A">
      <path
         id="path8"
         style="opacity:1;fill:#ffffff"
         d="M 355.49805 45.078125 L 319.08203 138.76953 L 319.08203 145.83984 L 340.82617 145.81836 L 352.31641 121.62305 L 356.61719 121.62305 L 356.61719 121.62695 L 362.69336 121.62695 L 374.33984 145.85547 L 395.92578 145.8457 L 395.92578 138.77344 L 359.50977 45.082031 L 358.39062 45.082031 L 358.39062 45.078125 L 355.49805 45.078125 z " />
    </g>
    <g
       inkscape:groupmode="layer"
       id="layer4"
       inkscape:label="R">
      <path
         style="opacity:1;fill:#ffffff"
         d="M 415.25,145.75 V 45 h 45.125 c 0,0 21.1875,0.07813 21.1875,28.625 0,23.022285 -20.94872,29.17065 -20.94872,29.17065 l 21.27949,42.95674 h -22.53903 l -17.4125,-34.02952 h -3.0052 v 34.1179 z"
         id="path2"
         sodipodi:nodetypes="cccsccccccc" />
    </g>
    <g
       inkscape:groupmode="layer"
       id="layer5"
       inkscape:label="E">
      <path
         id="path9-8"
         style="fill:#ffffff"
         d="M 569.74805 44.878906 L 502.99805 45.128906 L 502.99805 98.753906 L 503 98.753906 L 503 145.5 L 569.75 145.75 L 569.75 122 L 526.875 122 L 526.875 106.75 L 549 106.75 L 549 91.875 L 548.99805 91.875 L 548.99805 83.878906 L 526.87305 83.878906 L 526.87305 68.628906 L 569.74805 68.628906 L 569.74805 44.878906 z " />
    </g>
    <g
       inkscape:groupmode="layer"
       id="layer4-7"
       inkscape:label="R"
       transform="translate(-366.78217,126.125)">
      <path
         style="opacity:1;fill:#ffffff"
         d="M 415.25,145.75 V 45 h 45.125 c 0,0 21.1875,0.334746 21.1875,28.625 0,23.022285 -20.94872,29.17065 -20.94872,29.17065 l 21.27949,42.95674 h -22.53903 l -17.4125,-34.02952 h -3.0052 v 34.1179 z"
         id="path2-6"
         sodipodi:nodetypes="cccsccccccc" />
    </g>
    <g
       inkscape:groupmode="layer"
       id="layer2-2"
       inkscape:label="U"
       transform="translate(-95.044,126.05221)">
      <path
         id="path6-6"
         style="opacity:1;fill:#ffffff;stroke-width:1.00687"
         d="M 276.91705 44.904821 L 276.91705 106.96537 L 276.91509 106.96537 C 276.91509 106.96537 277.02972 112.55574 271.98931 116.24662 C 267.54341 119.50217 263.76931 119.93059 262.67877 119.98685 C 261.49078 119.9342 257.30607 119.51722 252.85064 116.24466 C 247.82571 112.55379 248.08502 107.08451 248.08502 107.08451 L 248.00689 107.08646 L 248.00689 45.047399 L 223.92681 45.047399 L 224.09283 113.52006 L 224.12212 113.51224 C 224.16766 114.90975 224.94338 129.47884 237.93658 138.00638 C 250.49744 146.2502 260.62624 146.2483 262.72173 146.14701 C 264.58102 146.25033 274.23733 146.32634 286.95025 138.00834 C 300.3257 129.25685 300.79854 114.07526 300.81353 113.37357 L 300.83111 113.37748 L 300.99712 44.904821 L 276.91705 44.904821 z " />
    </g>
    <g
       inkscape:groupmode="layer"
       id="layer7"
       inkscape:label="N">
      <path
         style="opacity:1;fill:#ffffff"
         d="M 222.25,271.75 V 171 h 26.125 L 275,223.25 V 171 h 23.625 v 100.875 h -23.25 L 246.28125,213.46664 V 272 Z"
         id="path10"
         sodipodi:nodetypes="ccccccccccc" />
    </g>
    <g
       inkscape:groupmode="layer"
       id="layer7-6"
       inkscape:label="N"
       transform="translate(95.060214,0.05545646)">
      <path
         style="opacity:1;fill:#ffffff"
         d="M 222.25,271.75 V 171 h 26.125 L 275,223.25 V 171 h 23.625 v 100.875 h -23.25 L 246.28125,213.46664 V 272 Z"
         id="path10-2"
         sodipodi:nodetypes="ccccccccccc" />
    </g>
    <g
       inkscape:groupmode="layer"
       id="layer5-0"
       inkscape:label="E"
       transform="translate(-89.889882,125.975)">
      <path
         id="path9-8-8"
         style="fill:#ffffff"
         d="M 569.7473 44.878516 L 502.9973 45.128516 L 502.9973 98.753516 L 502.99926 98.753516 L 502.99926 145.49961 L 569.74926 145.74961 L 569.74926 121.99961 L 526.87426 121.99961 L 526.87426 106.74961 L 548.99926 106.74961 L 548.99926 91.874609 L 548.9973 91.874609 L 548.9973 83.878516 L 526.8723 83.878516 L 526.8723 68.628516 L 569.7473 68.628516 L 569.7473 44.878516 z " />
    </g>
    <g
       inkscape:groupmode="layer"
       id="layer4-7-3"
       inkscape:label="R"
       transform="translate(86.201483,126.11236)">
      <path
         style="opacity:1;fill:#ffffff"
         d="M 415.25,145.75 V 45 h 45.125 c 0,0 21.1875,-0.549137 21.1875,28.625 0,23.022285 -20.94872,29.17065 -20.94872,29.17065 l 21.27949,42.95674 h -22.53903 l -17.4125,-34.02952 h -3.0052 v 34.1179 z"
         id="path2-6-1"
         sodipodi:nodetypes="cccsccccccc" />
    </g>
  </g>
</svg>
